<?xml version="1.0" encoding="UTF-8" standalone="no"?>
<svg
   xmlns:dc="http://purl.org/dc/elements/1.1/"
   xmlns:cc="http://creativecommons.org/ns#"
   xmlns:rdf="http://www.w3.org/1999/02/22-rdf-syntax-ns#"
   xmlns:svg="http://www.w3.org/2000/svg"
   xmlns="http://www.w3.org/2000/svg"
   viewBox="0 0 396.85068 559.37067"
   height="559.37067"
   width="396.85068"
   xml:space="preserve"
   id="svg2"
   version="1.1"><metadata
     id="metadata8"><rdf:RDF><cc:Work
         rdf:about=""><dc:format>image/svg+xml</dc:format><dc:type
           rdf:resource="http://purl.org/dc/dcmitype/StillImage" /></cc:Work></rdf:RDF></metadata><defs
     id="defs6"><clipPath
       id="clipPath116"
       clipPathUnits="userSpaceOnUse"><path
         id="path114"
         d="M 0,0 H 435 V 252 H 0 Z" /></clipPath><clipPath
       id="clipPath126"
       clipPathUnits="userSpaceOnUse"><path
         id="path124"
         d="M 0,0 H 468 V 324 H 0 Z" /></clipPath><clipPath
       id="clipPath136"
       clipPathUnits="userSpaceOnUse"><path
         id="path134"
         d="M 59.04,73.44 H 437.76 V 264.96 H 59.04 Z" /></clipPath><clipPath
       id="clipPath334"
       clipPathUnits="userSpaceOnUse"><path
         id="path332"
         d="M 59.04,73.44 H 437.76 V 264.96 H 59.04 Z" /></clipPath></defs><g
     transform="matrix(1.3333333,0,0,-1.3333333,0,559.37067)"
     id="g10"><g
       transform="translate(0,419.528)"
       id="g12"><path
         id="path14"
         style="fill:none;stroke:#000000;stroke-width:0.398;stroke-linecap:butt;stroke-linejoin:miter;stroke-miterlimit:10;stroke-dasharray:none;stroke-opacity:1"
         d="M 0,0 H 297.638" /></g><g
       id="g16"><path
         id="path18"
         style="fill:none;stroke:#000000;stroke-width:0.398;stroke-linecap:butt;stroke-linejoin:miter;stroke-miterlimit:10;stroke-dasharray:none;stroke-opacity:1"
         d="M 0,0 V 419.528" /></g><g
       transform="translate(297.638)"
       id="g20"><path
         id="path22"
         style="fill:none;stroke:#000000;stroke-width:0.398;stroke-linecap:butt;stroke-linejoin:miter;stroke-miterlimit:10;stroke-dasharray:none;stroke-opacity:1"
         d="M 0,0 V 419.528" /></g><g
       id="g24"><path
         id="path26"
         style="fill:none;stroke:#000000;stroke-width:0.398;stroke-linecap:butt;stroke-linejoin:miter;stroke-miterlimit:10;stroke-dasharray:none;stroke-opacity:1"
         d="M 0,0 H 297.638" /></g><text
       id="text30"
       style="font-variant:normal;font-weight:normal;font-size:9.96259975px;font-family:LMRoman10;-inkscape-font-specification:LMRoman10-Regular;writing-mode:lr-tb;fill:#000000;fill-opacity:1;fill-rule:nonzero;stroke:none"
       transform="matrix(1,0,0,-1,23.554,427.099)"><tspan
         id="tspan28"
         y="0"
         x="0 4.7023473 8.6046972 16.906532 21.887833 25.790182 31.048443 36.583664 41.286011 48.480999 54.01622 63.699867 78.643768 83.625069 88.606369 93.587669 98.56897 103.55027 108.53157 113.51287 118.49417 128.45677 143.40067 148.38197 153.36327 156.13087 161.11218 171.07478 186.01868 191.55389 196.5352 201.51649 210.92618 220.88878 235.83267 244.13451">“rmarkdown”—2020/7/16—15:12—page1—#1</tspan></text>
<text
       id="text34"
       style="font-variant:normal;font-weight:normal;font-size:17.2154007px;font-family:LMRoman17;-inkscape-font-specification:LMRoman17-Regular;writing-mode:lr-tb;fill:#000000;fill-opacity:1;fill-rule:nonzero;stroke:none"
       transform="matrix(1,0,0,-1,83.304,353.549)"><tspan
         id="tspan32"
         y="0"
         x="0 11.935437 18.931776 23.230461 27.529146 40.62318 57.535587 72.168678 80.06366 86.159637 94.503937 103.29929 110.74667 122.23967">HelloRMarkdown</tspan></text>
<text
       id="text40"
       style="font-variant:normal;font-weight:normal;font-size:11.9552002px;font-family:LMRoman12;-inkscape-font-specification:LMRoman12-Regular;writing-mode:lr-tb;fill:#000000;fill-opacity:1;fill-rule:nonzero;stroke:none"
       transform="matrix(1,0,0,-1,64.662,318.679)"><tspan
         id="tspan36"
         y="0"
         x="0 8.6149168 14.468183 19.085281 27.599775 31.822351 38.325981 44.179245 50.357693 60.120308 73.122787 81.737701 87.590965 94.417389 99.620293 104.17283 112.63472 121.8187 127.02161 133.19049 137.74303 140.99484 146.19775 155.95319 161.80646">RossIhaka&amp;RobertGentleman</tspan><tspan
         id="tspan38"
         y="27.895"
         x="56.695999 62.549267 68.402534 74.255798 80.109062 84.011238 89.86451 95.717773 99.619949 105.47321">1997-04-23</tspan></text>
<text
       id="text44"
       style="font-variant:normal;font-weight:normal;font-size:10.00244999px;font-family:LMRoman10;-inkscape-font-specification:LMRoman10-Regular;writing-mode:lr-tb;fill:#000000;fill-opacity:1;fill-rule:nonzero;stroke:none"
       transform="matrix(1,0,0,-0.99601594,13.815,257.907)"><tspan
         id="tspan42"
         y="0"
         x="0 7.2237697 12.781131 15.559812 22.826591 25.605272 32.872051 41.204094 46.761456 51.76268 55.680641 60.681866 65.68309 69.601051 74.60228 80.159637 89.037811 91.81649 100.69467 105.69589 114.57407 125.26768 134.43694 139.43816 143.35612 148.63541 154.18277 158.91393 166.1377 175.01587 180.57324 185.85454 190.30061 195.85799 204.19302 208.63911 213.91641 217.80635 225.01613 232.10086 236.54695 239.32562 244.05679 254.60138 257.38007 264.64682">ThisisaparagraphinanRMarkdowndocument.Belowisa</tspan></text>
<text
       id="text48"
       style="font-variant:normal;font-weight:normal;font-size:9.96259975px;font-family:LMRoman10;-inkscape-font-specification:LMRoman10-Regular;writing-mode:lr-tb;fill:#000000;fill-opacity:1;fill-rule:nonzero;stroke:none"
       transform="matrix(1,0,0,-1,14.173,245.952)"><tspan
         id="tspan46"
         y="0"
         x="0 4.4283757 9.6886282 15.223849 22.96977 27.119194 32.375462 37.910683 43.445904 48.704163">codechunk:</tspan></text>
<g
       transform="translate(11.184,190.383)"
       id="g50"><path
         id="path52"
         style="fill:#f8f8f8;fill-opacity:1;fill-rule:nonzero;stroke:none"
         d="M 0,0 H 275.269 V 49.592 H 0 Z" /></g><text
       id="text56"
       style="font-variant:normal;font-weight:normal;font-size:9.96259975px;font-family:LMMono10;-inkscape-font-specification:LMMono10-Regular;writing-mode:lr-tb;fill:#000000;fill-opacity:1;fill-rule:nonzero;stroke:none"
       transform="matrix(1,0,0,-1,14.173,230.067)"><tspan
         id="tspan54"
         y="0"
         x="0 5.2303648 10.46073 20.921459">fit=</tspan></text>
<text
       id="text60"
       style="font-variant:normal;font-weight:bold;font-size:9.96259975px;font-family:LMMonoLt10;-inkscape-font-specification:LMMonoLt10-Bold;writing-mode:lr-tb;fill:#214a87;fill-opacity:1;fill-rule:nonzero;stroke:none"
       transform="matrix(1,0,0,-1,45.555,230.067)"><tspan
         id="tspan58"
         y="0"
         x="0 5.2303648">lm</tspan></text>
<text
       id="text64"
       style="font-variant:normal;font-weight:normal;font-size:9.96259975px;font-family:LMMono10;-inkscape-font-specification:LMMono10-Regular;writing-mode:lr-tb;fill:#000000;fill-opacity:1;fill-rule:nonzero;stroke:none"
       transform="matrix(1,0,0,-1,56.016,230.067)"><tspan
         id="tspan62"
         y="0"
         x="0 5.2303648 10.46073 15.691095 20.921459">(dist</tspan></text>
<text
       id="text68"
       style="font-variant:normal;font-weight:bold;font-size:9.96259975px;font-family:LMMonoLt10;-inkscape-font-specification:LMMonoLt10-Bold;writing-mode:lr-tb;fill:#cf5c00;fill-opacity:1;fill-rule:nonzero;stroke:none"
       transform="matrix(1,0,0,-1,87.398,230.067)"><tspan
         id="tspan66"
         y="0"
         x="0">~</tspan></text>
<text
       id="text78"
       style="font-variant:normal;font-weight:normal;font-size:9.96259975px;font-family:LMMono10;-inkscape-font-specification:LMMono10-Regular;writing-mode:lr-tb;fill:#000000;fill-opacity:1;fill-rule:nonzero;stroke:none"
       transform="matrix(1,0,0,-1,97.859,230.067)"><tspan
         id="tspan70"
         y="0"
         x="0 5.2303648 10.46073 15.691095 20.921459 26.151825">speed,</tspan><tspan
         id="tspan72"
         y="0"
         x="36.612556 41.842918 47.073284 52.30365 62.764381">data=</tspan><tspan
         id="tspan74"
         y="0"
         x="73.225113 78.455475 83.685837 88.916206 94.146568">cars)</tspan><tspan
         id="tspan76"
         y="11.955"
         x="-83.685997 -62.764542">b=</tspan></text>
<text
       id="text82"
       style="font-variant:normal;font-weight:bold;font-size:9.96259975px;font-family:LMMonoLt10;-inkscape-font-specification:LMMonoLt10-Bold;writing-mode:lr-tb;fill:#214a87;fill-opacity:1;fill-rule:nonzero;stroke:none"
       transform="matrix(1,0,0,-1,45.555,218.112)"><tspan
         id="tspan80"
         y="0"
         x="0 5.2303648 10.46073 15.691095">coef</tspan></text>
<text
       id="text86"
       style="font-variant:normal;font-weight:normal;font-size:9.96259975px;font-family:LMMono10;-inkscape-font-specification:LMMono10-Regular;writing-mode:lr-tb;fill:#000000;fill-opacity:1;fill-rule:nonzero;stroke:none"
       transform="matrix(1,0,0,-1,66.477,218.112)"><tspan
         id="tspan84"
         y="0"
         x="0 5.2303648 10.46073 15.691095 20.921459">(fit)</tspan></text>
<text
       id="text90"
       style="font-variant:normal;font-weight:bold;font-size:9.96259975px;font-family:LMMonoLt10;-inkscape-font-specification:LMMonoLt10-Bold;writing-mode:lr-tb;fill:#214a87;fill-opacity:1;fill-rule:nonzero;stroke:none"
       transform="matrix(1,0,0,-1,14.173,206.157)"><tspan
         id="tspan88"
         y="0"
         x="0 5.2303648 10.46073 15.691095">plot</tspan></text>
<text
       id="text94"
       style="font-variant:normal;font-weight:normal;font-size:9.96259975px;font-family:LMMono10;-inkscape-font-specification:LMMono10-Regular;writing-mode:lr-tb;fill:#000000;fill-opacity:1;fill-rule:nonzero;stroke:none"
       transform="matrix(1,0,0,-1,35.095,206.157)"><tspan
         id="tspan92"
         y="0"
         x="0 5.2303648 10.46073 15.691095 20.921459 26.151825">(cars)</tspan></text>
<text
       id="text98"
       style="font-variant:normal;font-weight:bold;font-size:9.96259975px;font-family:LMMonoLt10;-inkscape-font-specification:LMMonoLt10-Bold;writing-mode:lr-tb;fill:#214a87;fill-opacity:1;fill-rule:nonzero;stroke:none"
       transform="matrix(1,0,0,-1,14.173,194.202)"><tspan
         id="tspan96"
         y="0"
         x="0 5.2303648 10.46073 15.691095 20.921459 26.151825">abline</tspan></text>
<text
       id="text102"
       style="font-variant:normal;font-weight:normal;font-size:9.96259975px;font-family:LMMono10;-inkscape-font-specification:LMMono10-Regular;writing-mode:lr-tb;fill:#000000;fill-opacity:1;fill-rule:nonzero;stroke:none"
       transform="matrix(1,0,0,-1,45.555,194.202)"><tspan
         id="tspan100"
         y="0"
         x="0 5.2303648 10.46073 15.691095 20.921459">(fit)</tspan></text>
<g
       transform="translate(14.173,27.405)"
       id="g104"><g
         transform="scale(0.61906)"
         id="g106"><g
           id="g108"><g
             id="g110"><g
               clip-path="url(#clipPath116)"
               id="g112"><g
                 transform="translate(-4,-16)"
                 id="g118"><g
                   id="g120"><g
                     clip-path="url(#clipPath126)"
                     id="g122"><g
                       id="g128" /><g
                       id="g130"><g
                         clip-path="url(#clipPath136)"
                         id="g132"><path
                           id="path138"
                           style="fill:none;stroke:#000000;stroke-width:0.75;stroke-linecap:round;stroke-linejoin:round;stroke-miterlimit:10;stroke-dasharray:none;stroke-opacity:1"
                           d="m 70.37,80.53 c 0,1.49 1.21,2.7 2.7,2.7 1.48,0 2.7,-1.21 2.7,-2.7 0,-1.48 -1.22,-2.7 -2.7,-2.7 -1.49,0 -2.7,1.22 -2.7,2.7" /><path
                           id="path140"
                           style="fill:none;stroke:#000000;stroke-width:0.75;stroke-linecap:round;stroke-linejoin:round;stroke-miterlimit:10;stroke-dasharray:none;stroke-opacity:1"
                           d="m 70.37,92.56 c 0,1.48 1.21,2.7 2.7,2.7 1.48,0 2.7,-1.22 2.7,-2.7 0,-1.49 -1.22,-2.7 -2.7,-2.7 -1.49,0 -2.7,1.21 -2.7,2.7" /><path
                           id="path142"
                           style="fill:none;stroke:#000000;stroke-width:0.75;stroke-linecap:round;stroke-linejoin:round;stroke-miterlimit:10;stroke-dasharray:none;stroke-opacity:1"
                           d="m 120.46,83.54 c 0,1.48 1.22,2.7 2.7,2.7 1.49,0 2.7,-1.22 2.7,-2.7 0,-1.49 -1.21,-2.7 -2.7,-2.7 -1.48,0 -2.7,1.21 -2.7,2.7" /><path
                           id="path144"
                           style="fill:none;stroke:#000000;stroke-width:0.75;stroke-linecap:round;stroke-linejoin:round;stroke-miterlimit:10;stroke-dasharray:none;stroke-opacity:1"
                           d="m 120.46,110.59 c 0,1.48 1.22,2.7 2.7,2.7 1.49,0 2.7,-1.22 2.7,-2.7 0,-1.49 -1.21,-2.7 -2.7,-2.7 -1.48,0 -2.7,1.21 -2.7,2.7" /><path
                           id="path146"
                           style="fill:none;stroke:#000000;stroke-width:0.75;stroke-linecap:round;stroke-linejoin:round;stroke-miterlimit:10;stroke-dasharray:none;stroke-opacity:1"
                           d="m 137.16,101.57 c 0,1.49 1.22,2.7 2.7,2.7 1.49,0 2.7,-1.21 2.7,-2.7 0,-1.48 -1.21,-2.7 -2.7,-2.7 -1.48,0 -2.7,1.22 -2.7,2.7" /><path
                           id="path148"
                           style="fill:none;stroke:#000000;stroke-width:0.75;stroke-linecap:round;stroke-linejoin:round;stroke-miterlimit:10;stroke-dasharray:none;stroke-opacity:1"
                           d="m 153.86,92.56 c 0,1.48 1.21,2.7 2.7,2.7 1.48,0 2.7,-1.22 2.7,-2.7 0,-1.49 -1.22,-2.7 -2.7,-2.7 -1.49,0 -2.7,1.21 -2.7,2.7" /><path
                           id="path150"
                           style="fill:none;stroke:#000000;stroke-width:0.75;stroke-linecap:round;stroke-linejoin:round;stroke-miterlimit:10;stroke-dasharray:none;stroke-opacity:1"
                           d="m 170.56,104.58 c 0,1.48 1.21,2.7 2.7,2.7 1.48,0 2.7,-1.22 2.7,-2.7 0,-1.49 -1.22,-2.7 -2.7,-2.7 -1.49,0 -2.7,1.21 -2.7,2.7" /><path
                           id="path152"
                           style="fill:none;stroke:#000000;stroke-width:0.75;stroke-linecap:round;stroke-linejoin:round;stroke-miterlimit:10;stroke-dasharray:none;stroke-opacity:1"
                           d="m 170.56,116.6 c 0,1.49 1.21,2.7 2.7,2.7 1.48,0 2.7,-1.21 2.7,-2.7 0,-1.48 -1.22,-2.7 -2.7,-2.7 -1.49,0 -2.7,1.22 -2.7,2.7" /><path
                           id="path154"
                           style="fill:none;stroke:#000000;stroke-width:0.75;stroke-linecap:round;stroke-linejoin:round;stroke-miterlimit:10;stroke-dasharray:none;stroke-opacity:1"
                           d="m 170.56,128.62 c 0,1.49 1.21,2.7 2.7,2.7 1.48,0 2.7,-1.21 2.7,-2.7 0,-1.48 -1.22,-2.7 -2.7,-2.7 -1.49,0 -2.7,1.22 -2.7,2.7" /><path
                           id="path156"
                           style="fill:none;stroke:#000000;stroke-width:0.75;stroke-linecap:round;stroke-linejoin:round;stroke-miterlimit:10;stroke-dasharray:none;stroke-opacity:1"
                           d="m 187.26,103.08 c 0,1.48 1.21,2.7 2.7,2.7 1.48,0 2.7,-1.22 2.7,-2.7 0,-1.49 -1.22,-2.7 -2.7,-2.7 -1.49,0 -2.7,1.21 -2.7,2.7" /><path
                           id="path158"
                           style="fill:none;stroke:#000000;stroke-width:0.75;stroke-linecap:round;stroke-linejoin:round;stroke-miterlimit:10;stroke-dasharray:none;stroke-opacity:1"
                           d="m 187.26,119.61 c 0,1.48 1.21,2.7 2.7,2.7 1.48,0 2.7,-1.22 2.7,-2.7 0,-1.49 -1.22,-2.7 -2.7,-2.7 -1.49,0 -2.7,1.21 -2.7,2.7" /><path
                           id="path160"
                           style="fill:none;stroke:#000000;stroke-width:0.75;stroke-linecap:round;stroke-linejoin:round;stroke-miterlimit:10;stroke-dasharray:none;stroke-opacity:1"
                           d="m 203.95,98.57 c 0,1.48 1.22,2.7 2.7,2.7 1.49,0 2.7,-1.22 2.7,-2.7 0,-1.49 -1.21,-2.7 -2.7,-2.7 -1.48,0 -2.7,1.21 -2.7,2.7" /><path
                           id="path162"
                           style="fill:none;stroke:#000000;stroke-width:0.75;stroke-linecap:round;stroke-linejoin:round;stroke-miterlimit:10;stroke-dasharray:none;stroke-opacity:1"
                           d="m 203.95,107.58 c 0,1.49 1.22,2.7 2.7,2.7 1.49,0 2.7,-1.21 2.7,-2.7 0,-1.48 -1.21,-2.7 -2.7,-2.7 -1.48,0 -2.7,1.22 -2.7,2.7" /><path
                           id="path164"
                           style="fill:none;stroke:#000000;stroke-width:0.75;stroke-linecap:round;stroke-linejoin:round;stroke-miterlimit:10;stroke-dasharray:none;stroke-opacity:1"
                           d="m 203.95,113.6 c 0,1.48 1.22,2.7 2.7,2.7 1.49,0 2.7,-1.22 2.7,-2.7 0,-1.49 -1.21,-2.7 -2.7,-2.7 -1.48,0 -2.7,1.21 -2.7,2.7" /><path
                           id="path166"
                           style="fill:none;stroke:#000000;stroke-width:0.75;stroke-linecap:round;stroke-linejoin:round;stroke-miterlimit:10;stroke-dasharray:none;stroke-opacity:1"
                           d="m 203.95,119.61 c 0,1.48 1.22,2.7 2.7,2.7 1.49,0 2.7,-1.22 2.7,-2.7 0,-1.49 -1.21,-2.7 -2.7,-2.7 -1.48,0 -2.7,1.21 -2.7,2.7" /><path
                           id="path168"
                           style="fill:none;stroke:#000000;stroke-width:0.75;stroke-linecap:round;stroke-linejoin:round;stroke-miterlimit:10;stroke-dasharray:none;stroke-opacity:1"
                           d="m 220.65,116.6 c 0,1.49 1.22,2.7 2.7,2.7 1.49,0 2.7,-1.21 2.7,-2.7 0,-1.48 -1.21,-2.7 -2.7,-2.7 -1.48,0 -2.7,1.22 -2.7,2.7" /><path
                           id="path170"
                           style="fill:none;stroke:#000000;stroke-width:0.75;stroke-linecap:round;stroke-linejoin:round;stroke-miterlimit:10;stroke-dasharray:none;stroke-opacity:1"
                           d="m 220.65,128.62 c 0,1.49 1.22,2.7 2.7,2.7 1.49,0 2.7,-1.21 2.7,-2.7 0,-1.48 -1.21,-2.7 -2.7,-2.7 -1.48,0 -2.7,1.22 -2.7,2.7" /><path
                           id="path172"
                           style="fill:none;stroke:#000000;stroke-width:0.75;stroke-linecap:round;stroke-linejoin:round;stroke-miterlimit:10;stroke-dasharray:none;stroke-opacity:1"
                           d="m 220.65,128.62 c 0,1.49 1.22,2.7 2.7,2.7 1.49,0 2.7,-1.21 2.7,-2.7 0,-1.48 -1.21,-2.7 -2.7,-2.7 -1.48,0 -2.7,1.22 -2.7,2.7" /><path
                           id="path174"
                           style="fill:none;stroke:#000000;stroke-width:0.75;stroke-linecap:round;stroke-linejoin:round;stroke-miterlimit:10;stroke-dasharray:none;stroke-opacity:1"
                           d="m 220.65,146.66 c 0,1.48 1.22,2.7 2.7,2.7 1.49,0 2.7,-1.22 2.7,-2.7 0,-1.49 -1.21,-2.7 -2.7,-2.7 -1.48,0 -2.7,1.21 -2.7,2.7" /><path
                           id="path176"
                           style="fill:none;stroke:#000000;stroke-width:0.75;stroke-linecap:round;stroke-linejoin:round;stroke-miterlimit:10;stroke-dasharray:none;stroke-opacity:1"
                           d="m 237.35,116.6 c 0,1.49 1.22,2.7 2.7,2.7 1.49,0 2.7,-1.21 2.7,-2.7 0,-1.48 -1.21,-2.7 -2.7,-2.7 -1.48,0 -2.7,1.22 -2.7,2.7" /><path
                           id="path178"
                           style="fill:none;stroke:#000000;stroke-width:0.75;stroke-linecap:round;stroke-linejoin:round;stroke-miterlimit:10;stroke-dasharray:none;stroke-opacity:1"
                           d="m 237.35,131.63 c 0,1.48 1.22,2.7 2.7,2.7 1.49,0 2.7,-1.22 2.7,-2.7 0,-1.49 -1.21,-2.7 -2.7,-2.7 -1.48,0 -2.7,1.21 -2.7,2.7" /><path
                           id="path180"
                           style="fill:none;stroke:#000000;stroke-width:0.75;stroke-linecap:round;stroke-linejoin:round;stroke-miterlimit:10;stroke-dasharray:none;stroke-opacity:1"
                           d="m 237.35,167.7 c 0,1.48 1.22,2.7 2.7,2.7 1.49,0 2.7,-1.22 2.7,-2.7 0,-1.49 -1.21,-2.7 -2.7,-2.7 -1.48,0 -2.7,1.21 -2.7,2.7" /><path
                           id="path182"
                           style="fill:none;stroke:#000000;stroke-width:0.75;stroke-linecap:round;stroke-linejoin:round;stroke-miterlimit:10;stroke-dasharray:none;stroke-opacity:1"
                           d="m 237.35,197.75 c 0,1.49 1.22,2.7 2.7,2.7 1.49,0 2.7,-1.21 2.7,-2.7 0,-1.48 -1.21,-2.7 -2.7,-2.7 -1.48,0 -2.7,1.22 -2.7,2.7" /><path
                           id="path184"
                           style="fill:none;stroke:#000000;stroke-width:0.75;stroke-linecap:round;stroke-linejoin:round;stroke-miterlimit:10;stroke-dasharray:none;stroke-opacity:1"
                           d="m 254.05,107.58 c 0,1.49 1.21,2.7 2.7,2.7 1.48,0 2.7,-1.21 2.7,-2.7 0,-1.48 -1.22,-2.7 -2.7,-2.7 -1.49,0 -2.7,1.22 -2.7,2.7" /><path
                           id="path186"
                           style="fill:none;stroke:#000000;stroke-width:0.75;stroke-linecap:round;stroke-linejoin:round;stroke-miterlimit:10;stroke-dasharray:none;stroke-opacity:1"
                           d="m 254.05,116.6 c 0,1.49 1.21,2.7 2.7,2.7 1.48,0 2.7,-1.21 2.7,-2.7 0,-1.48 -1.22,-2.7 -2.7,-2.7 -1.49,0 -2.7,1.22 -2.7,2.7" /><path
                           id="path188"
                           style="fill:none;stroke:#000000;stroke-width:0.75;stroke-linecap:round;stroke-linejoin:round;stroke-miterlimit:10;stroke-dasharray:none;stroke-opacity:1"
                           d="m 254.05,158.68 c 0,1.49 1.21,2.7 2.7,2.7 1.48,0 2.7,-1.21 2.7,-2.7 0,-1.48 -1.22,-2.7 -2.7,-2.7 -1.49,0 -2.7,1.22 -2.7,2.7" /><path
                           id="path190"
                           style="fill:none;stroke:#000000;stroke-width:0.75;stroke-linecap:round;stroke-linejoin:round;stroke-miterlimit:10;stroke-dasharray:none;stroke-opacity:1"
                           d="m 270.75,125.62 c 0,1.48 1.21,2.7 2.7,2.7 1.48,0 2.7,-1.22 2.7,-2.7 0,-1.49 -1.22,-2.7 -2.7,-2.7 -1.49,0 -2.7,1.21 -2.7,2.7" /><path
                           id="path192"
                           style="fill:none;stroke:#000000;stroke-width:0.75;stroke-linecap:round;stroke-linejoin:round;stroke-miterlimit:10;stroke-dasharray:none;stroke-opacity:1"
                           d="m 270.75,137.64 c 0,1.49 1.21,2.7 2.7,2.7 1.48,0 2.7,-1.21 2.7,-2.7 0,-1.48 -1.22,-2.7 -2.7,-2.7 -1.49,0 -2.7,1.22 -2.7,2.7" /><path
                           id="path194"
                           style="fill:none;stroke:#000000;stroke-width:0.75;stroke-linecap:round;stroke-linejoin:round;stroke-miterlimit:10;stroke-dasharray:none;stroke-opacity:1"
                           d="m 287.45,125.62 c 0,1.48 1.21,2.7 2.7,2.7 1.48,0 2.7,-1.22 2.7,-2.7 0,-1.49 -1.22,-2.7 -2.7,-2.7 -1.49,0 -2.7,1.21 -2.7,2.7" /><path
                           id="path196"
                           style="fill:none;stroke:#000000;stroke-width:0.75;stroke-linecap:round;stroke-linejoin:round;stroke-miterlimit:10;stroke-dasharray:none;stroke-opacity:1"
                           d="m 287.45,137.64 c 0,1.49 1.21,2.7 2.7,2.7 1.48,0 2.7,-1.21 2.7,-2.7 0,-1.48 -1.22,-2.7 -2.7,-2.7 -1.49,0 -2.7,1.22 -2.7,2.7" /><path
                           id="path198"
                           style="fill:none;stroke:#000000;stroke-width:0.75;stroke-linecap:round;stroke-linejoin:round;stroke-miterlimit:10;stroke-dasharray:none;stroke-opacity:1"
                           d="m 287.45,152.67 c 0,1.48 1.21,2.7 2.7,2.7 1.48,0 2.7,-1.22 2.7,-2.7 0,-1.49 -1.22,-2.7 -2.7,-2.7 -1.49,0 -2.7,1.21 -2.7,2.7" /><path
                           id="path200"
                           style="fill:none;stroke:#000000;stroke-width:0.75;stroke-linecap:round;stroke-linejoin:round;stroke-miterlimit:10;stroke-dasharray:none;stroke-opacity:1"
                           d="m 304.14,140.65 c 0,1.48 1.22,2.7 2.7,2.7 1.49,0 2.7,-1.22 2.7,-2.7 0,-1.49 -1.21,-2.7 -2.7,-2.7 -1.48,0 -2.7,1.21 -2.7,2.7" /><path
                           id="path202"
                           style="fill:none;stroke:#000000;stroke-width:0.75;stroke-linecap:round;stroke-linejoin:round;stroke-miterlimit:10;stroke-dasharray:none;stroke-opacity:1"
                           d="m 304.14,161.69 c 0,1.48 1.22,2.7 2.7,2.7 1.49,0 2.7,-1.22 2.7,-2.7 0,-1.49 -1.21,-2.7 -2.7,-2.7 -1.48,0 -2.7,1.21 -2.7,2.7" /><path
                           id="path204"
                           style="fill:none;stroke:#000000;stroke-width:0.75;stroke-linecap:round;stroke-linejoin:round;stroke-miterlimit:10;stroke-dasharray:none;stroke-opacity:1"
                           d="m 304.14,191.74 c 0,1.49 1.22,2.7 2.7,2.7 1.49,0 2.7,-1.21 2.7,-2.7 0,-1.48 -1.21,-2.7 -2.7,-2.7 -1.48,0 -2.7,1.22 -2.7,2.7" /><path
                           id="path206"
                           style="fill:none;stroke:#000000;stroke-width:0.75;stroke-linecap:round;stroke-linejoin:round;stroke-miterlimit:10;stroke-dasharray:none;stroke-opacity:1"
                           d="m 304.14,203.76 c 0,1.49 1.22,2.7 2.7,2.7 1.49,0 2.7,-1.21 2.7,-2.7 0,-1.48 -1.21,-2.7 -2.7,-2.7 -1.48,0 -2.7,1.22 -2.7,2.7" /><path
                           id="path208"
                           style="fill:none;stroke:#000000;stroke-width:0.75;stroke-linecap:round;stroke-linejoin:round;stroke-miterlimit:10;stroke-dasharray:none;stroke-opacity:1"
                           d="m 320.84,131.63 c 0,1.48 1.22,2.7 2.7,2.7 1.49,0 2.7,-1.22 2.7,-2.7 0,-1.49 -1.21,-2.7 -2.7,-2.7 -1.48,0 -2.7,1.21 -2.7,2.7" /><path
                           id="path210"
                           style="fill:none;stroke:#000000;stroke-width:0.75;stroke-linecap:round;stroke-linejoin:round;stroke-miterlimit:10;stroke-dasharray:none;stroke-opacity:1"
                           d="m 320.84,146.66 c 0,1.48 1.22,2.7 2.7,2.7 1.49,0 2.7,-1.22 2.7,-2.7 0,-1.49 -1.21,-2.7 -2.7,-2.7 -1.48,0 -2.7,1.21 -2.7,2.7" /><path
                           id="path212"
                           style="fill:none;stroke:#000000;stroke-width:0.75;stroke-linecap:round;stroke-linejoin:round;stroke-miterlimit:10;stroke-dasharray:none;stroke-opacity:1"
                           d="m 320.84,179.72 c 0,1.48 1.22,2.7 2.7,2.7 1.49,0 2.7,-1.22 2.7,-2.7 0,-1.49 -1.21,-2.7 -2.7,-2.7 -1.48,0 -2.7,1.21 -2.7,2.7" /><path
                           id="path214"
                           style="fill:none;stroke:#000000;stroke-width:0.75;stroke-linecap:round;stroke-linejoin:round;stroke-miterlimit:10;stroke-dasharray:none;stroke-opacity:1"
                           d="m 337.54,125.62 c 0,1.48 1.22,2.7 2.7,2.7 1.49,0 2.7,-1.22 2.7,-2.7 0,-1.49 -1.21,-2.7 -2.7,-2.7 -1.48,0 -2.7,1.21 -2.7,2.7" /><path
                           id="path216"
                           style="fill:none;stroke:#000000;stroke-width:0.75;stroke-linecap:round;stroke-linejoin:round;stroke-miterlimit:10;stroke-dasharray:none;stroke-opacity:1"
                           d="m 337.54,149.66 c 0,1.49 1.22,2.7 2.7,2.7 1.49,0 2.7,-1.21 2.7,-2.7 0,-1.48 -1.21,-2.7 -2.7,-2.7 -1.48,0 -2.7,1.22 -2.7,2.7" /><path
                           id="path218"
                           style="fill:none;stroke:#000000;stroke-width:0.75;stroke-linecap:round;stroke-linejoin:round;stroke-miterlimit:10;stroke-dasharray:none;stroke-opacity:1"
                           d="m 337.54,155.67 c 0,1.49 1.22,2.7 2.7,2.7 1.49,0 2.7,-1.21 2.7,-2.7 0,-1.48 -1.21,-2.7 -2.7,-2.7 -1.48,0 -2.7,1.22 -2.7,2.7" /><path
                           id="path220"
                           style="fill:none;stroke:#000000;stroke-width:0.75;stroke-linecap:round;stroke-linejoin:round;stroke-miterlimit:10;stroke-dasharray:none;stroke-opacity:1"
                           d="m 337.54,161.69 c 0,1.48 1.22,2.7 2.7,2.7 1.49,0 2.7,-1.22 2.7,-2.7 0,-1.49 -1.21,-2.7 -2.7,-2.7 -1.48,0 -2.7,1.21 -2.7,2.7" /><path
                           id="path222"
                           style="fill:none;stroke:#000000;stroke-width:0.75;stroke-linecap:round;stroke-linejoin:round;stroke-miterlimit:10;stroke-dasharray:none;stroke-opacity:1"
                           d="m 337.54,173.71 c 0,1.48 1.22,2.7 2.7,2.7 1.49,0 2.7,-1.22 2.7,-2.7 0,-1.49 -1.21,-2.7 -2.7,-2.7 -1.48,0 -2.7,1.21 -2.7,2.7" /><path
                           id="path224"
                           style="fill:none;stroke:#000000;stroke-width:0.75;stroke-linecap:round;stroke-linejoin:round;stroke-miterlimit:10;stroke-dasharray:none;stroke-opacity:1"
                           d="m 370.94,176.71 c 0,1.49 1.21,2.7 2.7,2.7 1.48,0 2.7,-1.21 2.7,-2.7 0,-1.48 -1.22,-2.7 -2.7,-2.7 -1.49,0 -2.7,1.22 -2.7,2.7" /><path
                           id="path226"
                           style="fill:none;stroke:#000000;stroke-width:0.75;stroke-linecap:round;stroke-linejoin:round;stroke-miterlimit:10;stroke-dasharray:none;stroke-opacity:1"
                           d="m 387.64,158.68 c 0,1.49 1.21,2.7 2.7,2.7 1.48,0 2.7,-1.21 2.7,-2.7 0,-1.48 -1.22,-2.7 -2.7,-2.7 -1.49,0 -2.7,1.22 -2.7,2.7" /><path
                           id="path228"
                           style="fill:none;stroke:#000000;stroke-width:0.75;stroke-linecap:round;stroke-linejoin:round;stroke-miterlimit:10;stroke-dasharray:none;stroke-opacity:1"
                           d="m 404.33,182.73 c 0,1.48 1.22,2.7 2.7,2.7 1.49,0 2.7,-1.22 2.7,-2.7 0,-1.49 -1.21,-2.7 -2.7,-2.7 -1.48,0 -2.7,1.21 -2.7,2.7" /><path
                           id="path230"
                           style="fill:none;stroke:#000000;stroke-width:0.75;stroke-linecap:round;stroke-linejoin:round;stroke-miterlimit:10;stroke-dasharray:none;stroke-opacity:1"
                           d="m 404.33,215.79 c 0,1.48 1.22,2.7 2.7,2.7 1.49,0 2.7,-1.22 2.7,-2.7 0,-1.49 -1.21,-2.7 -2.7,-2.7 -1.48,0 -2.7,1.21 -2.7,2.7" /><path
                           id="path232"
                           style="fill:none;stroke:#000000;stroke-width:0.75;stroke-linecap:round;stroke-linejoin:round;stroke-miterlimit:10;stroke-dasharray:none;stroke-opacity:1"
                           d="m 404.33,217.29 c 0,1.49 1.22,2.7 2.7,2.7 1.49,0 2.7,-1.21 2.7,-2.7 0,-1.48 -1.21,-2.7 -2.7,-2.7 -1.48,0 -2.7,1.22 -2.7,2.7" /><path
                           id="path234"
                           style="fill:none;stroke:#000000;stroke-width:0.75;stroke-linecap:round;stroke-linejoin:round;stroke-miterlimit:10;stroke-dasharray:none;stroke-opacity:1"
                           d="m 404.33,257.87 c 0,1.48 1.22,2.7 2.7,2.7 1.49,0 2.7,-1.22 2.7,-2.7 0,-1.49 -1.21,-2.7 -2.7,-2.7 -1.48,0 -2.7,1.21 -2.7,2.7" /><path
                           id="path236"
                           style="fill:none;stroke:#000000;stroke-width:0.75;stroke-linecap:round;stroke-linejoin:round;stroke-miterlimit:10;stroke-dasharray:none;stroke-opacity:1"
                           d="m 421.03,205.27 c 0,1.48 1.22,2.7 2.7,2.7 1.49,0 2.7,-1.22 2.7,-2.7 0,-1.49 -1.21,-2.7 -2.7,-2.7 -1.48,0 -2.7,1.21 -2.7,2.7" /></g></g><g
                       id="g238"><path
                         id="path240"
                         style="fill:none;stroke:#000000;stroke-width:0.75;stroke-linecap:round;stroke-linejoin:round;stroke-miterlimit:10;stroke-dasharray:none;stroke-opacity:1"
                         d="M 89.77,73.44 H 423.73" /><path
                         id="path242"
                         style="fill:none;stroke:#000000;stroke-width:0.75;stroke-linecap:round;stroke-linejoin:round;stroke-miterlimit:10;stroke-dasharray:none;stroke-opacity:1"
                         d="m 89.77,73.44 v -7.2" /><path
                         id="path244"
                         style="fill:none;stroke:#000000;stroke-width:0.75;stroke-linecap:round;stroke-linejoin:round;stroke-miterlimit:10;stroke-dasharray:none;stroke-opacity:1"
                         d="m 173.26,73.44 v -7.2" /><path
                         id="path246"
                         style="fill:none;stroke:#000000;stroke-width:0.75;stroke-linecap:round;stroke-linejoin:round;stroke-miterlimit:10;stroke-dasharray:none;stroke-opacity:1"
                         d="m 256.75,73.44 v -7.2" /><path
                         id="path248"
                         style="fill:none;stroke:#000000;stroke-width:0.75;stroke-linecap:round;stroke-linejoin:round;stroke-miterlimit:10;stroke-dasharray:none;stroke-opacity:1"
                         d="m 340.24,73.44 v -7.2" /><path
                         id="path250"
                         style="fill:none;stroke:#000000;stroke-width:0.75;stroke-linecap:round;stroke-linejoin:round;stroke-miterlimit:10;stroke-dasharray:none;stroke-opacity:1"
                         d="m 423.73,73.44 v -7.2" /><text
                         id="text254"
                         style="font-variant:normal;font-weight:normal;font-size:12px;font-family:Helvetica;-inkscape-font-specification:Helvetica;writing-mode:lr-tb;fill:#000000;fill-opacity:1;fill-rule:nonzero;stroke:none"
                         transform="matrix(1,0,0,-1,86.43,47.52)"><tspan
                           id="tspan252"
                           y="0"
                           x="0">5</tspan></text>
<text
                         id="text258"
                         style="font-variant:normal;font-weight:normal;font-size:12px;font-family:Helvetica;-inkscape-font-specification:Helvetica;writing-mode:lr-tb;fill:#000000;fill-opacity:1;fill-rule:nonzero;stroke:none"
                         transform="matrix(1,0,0,-1,166.59,47.52)"><tspan
                           id="tspan256"
                           y="0"
                           x="0 6.6719999">10</tspan></text>
<text
                         id="text262"
                         style="font-variant:normal;font-weight:normal;font-size:12px;font-family:Helvetica;-inkscape-font-specification:Helvetica;writing-mode:lr-tb;fill:#000000;fill-opacity:1;fill-rule:nonzero;stroke:none"
                         transform="matrix(1,0,0,-1,250.08,47.52)"><tspan
                           id="tspan260"
                           y="0"
                           x="0 6.6719999">15</tspan></text>
<text
                         id="text266"
                         style="font-variant:normal;font-weight:normal;font-size:12px;font-family:Helvetica;-inkscape-font-specification:Helvetica;writing-mode:lr-tb;fill:#000000;fill-opacity:1;fill-rule:nonzero;stroke:none"
                         transform="matrix(1,0,0,-1,333.57,47.52)"><tspan
                           id="tspan264"
                           y="0"
                           x="0 6.6719999">20</tspan></text>
<text
                         id="text270"
                         style="font-variant:normal;font-weight:normal;font-size:12px;font-family:Helvetica;-inkscape-font-specification:Helvetica;writing-mode:lr-tb;fill:#000000;fill-opacity:1;fill-rule:nonzero;stroke:none"
                         transform="matrix(1,0,0,-1,417.06,47.52)"><tspan
                           id="tspan268"
                           y="0"
                           x="0 6.6719999">25</tspan></text>
<path
                         id="path272"
                         style="fill:none;stroke:#000000;stroke-width:0.75;stroke-linecap:round;stroke-linejoin:round;stroke-miterlimit:10;stroke-dasharray:none;stroke-opacity:1"
                         d="M 59.04,77.53 V 257.87" /><path
                         id="path274"
                         style="fill:none;stroke:#000000;stroke-width:0.75;stroke-linecap:round;stroke-linejoin:round;stroke-miterlimit:10;stroke-dasharray:none;stroke-opacity:1"
                         d="m 59.04,77.53 h -7.2" /><path
                         id="path276"
                         style="fill:none;stroke:#000000;stroke-width:0.75;stroke-linecap:round;stroke-linejoin:round;stroke-miterlimit:10;stroke-dasharray:none;stroke-opacity:1"
                         d="m 59.04,107.58 h -7.2" /><path
                         id="path278"
                         style="fill:none;stroke:#000000;stroke-width:0.75;stroke-linecap:round;stroke-linejoin:round;stroke-miterlimit:10;stroke-dasharray:none;stroke-opacity:1"
                         d="m 59.04,137.64 h -7.2" /><path
                         id="path280"
                         style="fill:none;stroke:#000000;stroke-width:0.75;stroke-linecap:round;stroke-linejoin:round;stroke-miterlimit:10;stroke-dasharray:none;stroke-opacity:1"
                         d="m 59.04,167.7 h -7.2" /><path
                         id="path282"
                         style="fill:none;stroke:#000000;stroke-width:0.75;stroke-linecap:round;stroke-linejoin:round;stroke-miterlimit:10;stroke-dasharray:none;stroke-opacity:1"
                         d="m 59.04,197.75 h -7.2" /><path
                         id="path284"
                         style="fill:none;stroke:#000000;stroke-width:0.75;stroke-linecap:round;stroke-linejoin:round;stroke-miterlimit:10;stroke-dasharray:none;stroke-opacity:1"
                         d="m 59.04,227.81 h -7.2" /><path
                         id="path286"
                         style="fill:none;stroke:#000000;stroke-width:0.75;stroke-linecap:round;stroke-linejoin:round;stroke-miterlimit:10;stroke-dasharray:none;stroke-opacity:1"
                         d="m 59.04,257.87 h -7.2" /><text
                         id="text290"
                         style="font-variant:normal;font-weight:normal;font-size:12px;font-family:Helvetica;-inkscape-font-specification:Helvetica;writing-mode:lr-tb;fill:#000000;fill-opacity:1;fill-rule:nonzero;stroke:none"
                         transform="matrix(0,1,1,0,41.76,74.19)"><tspan
                           id="tspan288"
                           y="0"
                           x="0">0</tspan></text>
<text
                         id="text294"
                         style="font-variant:normal;font-weight:normal;font-size:12px;font-family:Helvetica;-inkscape-font-specification:Helvetica;writing-mode:lr-tb;fill:#000000;fill-opacity:1;fill-rule:nonzero;stroke:none"
                         transform="matrix(0,1,1,0,41.76,100.91)"><tspan
                           id="tspan292"
                           y="0"
                           x="0 6.6719999">20</tspan></text>
<text
                         id="text298"
                         style="font-variant:normal;font-weight:normal;font-size:12px;font-family:Helvetica;-inkscape-font-specification:Helvetica;writing-mode:lr-tb;fill:#000000;fill-opacity:1;fill-rule:nonzero;stroke:none"
                         transform="matrix(0,1,1,0,41.76,130.97)"><tspan
                           id="tspan296"
                           y="0"
                           x="0 6.6719999">40</tspan></text>
<text
                         id="text302"
                         style="font-variant:normal;font-weight:normal;font-size:12px;font-family:Helvetica;-inkscape-font-specification:Helvetica;writing-mode:lr-tb;fill:#000000;fill-opacity:1;fill-rule:nonzero;stroke:none"
                         transform="matrix(0,1,1,0,41.76,161.03)"><tspan
                           id="tspan300"
                           y="0"
                           x="0 6.6719999">60</tspan></text>
<text
                         id="text306"
                         style="font-variant:normal;font-weight:normal;font-size:12px;font-family:Helvetica;-inkscape-font-specification:Helvetica;writing-mode:lr-tb;fill:#000000;fill-opacity:1;fill-rule:nonzero;stroke:none"
                         transform="matrix(0,1,1,0,41.76,191.08)"><tspan
                           id="tspan304"
                           y="0"
                           x="0 6.6719999">80</tspan></text>
<text
                         id="text310"
                         style="font-variant:normal;font-weight:normal;font-size:12px;font-family:Helvetica;-inkscape-font-specification:Helvetica;writing-mode:lr-tb;fill:#000000;fill-opacity:1;fill-rule:nonzero;stroke:none"
                         transform="matrix(0,1,1,0,41.76,217.8)"><tspan
                           id="tspan308"
                           y="0"
                           x="0 6.6719999 13.344">100</tspan></text>
<text
                         id="text314"
                         style="font-variant:normal;font-weight:normal;font-size:12px;font-family:Helvetica;-inkscape-font-specification:Helvetica;writing-mode:lr-tb;fill:#000000;fill-opacity:1;fill-rule:nonzero;stroke:none"
                         transform="matrix(0,1,1,0,41.76,247.86)"><tspan
                           id="tspan312"
                           y="0"
                           x="0 6.6719999 13.344">120</tspan></text>
<path
                         id="path316"
                         style="fill:none;stroke:#000000;stroke-width:0.75;stroke-linecap:round;stroke-linejoin:round;stroke-miterlimit:10;stroke-dasharray:none;stroke-opacity:1"
                         d="M 59.04,73.44 H 437.76 V 264.96 H 59.04 V 73.44" /></g><g
                       id="g318"><text
                         id="text322"
                         style="font-variant:normal;font-weight:normal;font-size:12px;font-family:Helvetica;-inkscape-font-specification:Helvetica;writing-mode:lr-tb;fill:#000000;fill-opacity:1;fill-rule:nonzero;stroke:none"
                         transform="matrix(1,0,0,-1,232.06,18.72)"><tspan
                           id="tspan320"
                           y="0"
                           x="0 6 12.672 19.344 26.016001">speed</tspan></text>
<text
                         id="text326"
                         style="font-variant:normal;font-weight:normal;font-size:12px;font-family:Helvetica;-inkscape-font-specification:Helvetica;writing-mode:lr-tb;fill:#000000;fill-opacity:1;fill-rule:nonzero;stroke:none"
                         transform="matrix(0,1,1,0,12.96,159.86)"><tspan
                           id="tspan324"
                           y="0"
                           x="0 6.6719999 9.3360004 15.336">dist</tspan></text>
</g><g
                       id="g328"><g
                         clip-path="url(#clipPath334)"
                         id="g330"><path
                           id="path336"
                           style="fill:none;stroke:#000000;stroke-width:0.75;stroke-linecap:round;stroke-linejoin:round;stroke-miterlimit:10;stroke-dasharray:none;stroke-opacity:1"
                           d="M 59.04,69.78 437.76,203.82" /></g></g></g></g></g></g></g></g></g><g
         transform="translate(-14.173,-27.405)"
         id="g338"><text
           id="text342"
           style="font-variant:normal;font-weight:normal;font-size:9.96259975px;font-family:LMRoman10;-inkscape-font-specification:LMRoman10-Regular;writing-mode:lr-tb;fill:#000000;fill-opacity:1;fill-rule:nonzero;stroke:none"
           transform="matrix(1,0,0,-1,146.328,-15.715)"><tspan
             id="tspan340"
             y="0"
             x="0">1</tspan></text>
</g></g></g></svg>